<svg width="69" height="140" viewBox="0 0 69 140" fill="none" xmlns="http://www.w3.org/2000/svg">
<path d="M68.8643 112.707V139.407H51.4287C49.772 139.407 48.4289 138.064 48.4287 136.407V135.613C48.4287 130.971 48.8984 127.178 49.8379 124.232C52.321 116.549 57.0363 112.707 63.9824 112.707H68.8643ZM68.7637 78.6123V104.448H0.140625V78.6123H68.7637ZM40.9492 0C49.5477 6.57058e-05 56.1191 2.05162 60.6631 6.15332C64.8224 9.88817 66.9023 14.74 66.9023 20.709C66.9023 26.6449 64.3158 30.9474 59.1426 33.6152H58.9854C65.6614 36.2497 69 40.9686 69 47.7715C68.9999 54.0073 66.7097 58.9094 62.1309 62.4775C57.3422 66.2124 50.5436 68.0801 41.7354 68.0801H36.9111V0H40.9492ZM28.208 67.9795H0V0H28.208V67.9795Z" fill="white"/>
</svg>
